<?xml version="1.0" encoding="utf-8"?>
<!-- Generator: Adobe Illustrator 16.0.0, SVG Export Plug-In . SVG Version: 6.00 Build 0)  -->
<!DOCTYPE svg PUBLIC "-//W3C//DTD SVG 1.1//EN" "http://www.w3.org/Graphics/SVG/1.1/DTD/svg11.dtd">
<svg version="1.1" id="Layer_1" xmlns="http://www.w3.org/2000/svg" xmlns:xlink="http://www.w3.org/1999/xlink" x="0px" y="0px"
	 width="224.385px" height="46.122px" viewBox="0 0 224.385 46.122" enable-background="new 0 0 224.385 46.122"
	 xml:space="preserve">
<g>
	<g>
		<path fill="#9A9C9E" d="M28.542,41.361c-3.173,3.047-6.972,4.571-11.393,4.571c-4.753,0-8.799-1.67-12.139-5.01S0,33.536,0,28.783
			c0-4.722,1.669-8.761,5.009-12.116s7.386-5.032,12.139-5.032c4.421,0,8.267,1.491,11.536,4.477l-1.446,1.278
			c-2.874-2.543-6.238-3.812-10.09-3.812c-4.201,0-7.79,1.482-10.766,4.452c-2.976,2.968-4.465,6.554-4.465,10.754
			c0,4.216,1.489,7.809,4.465,10.777s6.565,4.453,10.766,4.453c3.6,0,6.774-1.104,9.522-3.316V30.489h1.871V41.361z"/>
		<path fill="#9A9C9E" d="M40.977,45.814c-2.574,0-4.619-0.758-6.135-2.274c-1.515-1.515-2.298-3.436-2.344-5.755V24.946h1.895
			v12.672c0,1.737,0.631,3.222,1.894,4.453c1.247,1.248,2.803,1.872,4.667,1.872c1.737,0,3.233-0.62,4.488-1.859
			c1.255-1.241,1.882-2.729,1.882-4.466V24.946h1.896v12.839c-0.047,2.319-0.829,4.24-2.345,5.755
			C45.358,45.057,43.393,45.814,40.977,45.814z"/>
		<path fill="#9A9C9E" d="M75.75,45.53h-1.894v-4.193c-0.364,0.49-0.758,0.956-1.185,1.397c-2.243,2.259-4.958,3.388-8.149,3.388
			c-3.158,0-5.862-1.125-8.113-3.376c-2.25-2.25-3.375-4.953-3.375-8.112c0-3.189,1.125-5.906,3.375-8.148
			c2.25-2.241,4.955-3.363,8.113-3.363c3.19,0,5.906,1.122,8.149,3.363c0.426,0.442,0.821,0.908,1.185,1.397V24.97h1.894V45.53z
			 M73.855,36.48v-3.718c-0.348-1.849-1.217-3.467-2.606-4.856c-1.863-1.863-4.105-2.795-6.727-2.795
			c-2.621,0-4.86,0.932-6.714,2.795c-1.855,1.864-2.783,4.107-2.783,6.728c0,2.622,0.928,4.856,2.783,6.703
			c1.854,1.848,4.094,2.771,6.714,2.771c2.622,0,4.864-0.931,6.727-2.795C72.639,39.924,73.508,38.313,73.855,36.48z"/>
		<path fill="#9A9C9E" d="M82.807,24.97v-8.74h1.872v8.74h4.192v1.895h-4.192V45.53h-1.872V26.864h-4.192V24.97H82.807z"/>
		<path fill="#9A9C9E" d="M92.922,33.567c-0.047,0.332-0.072,0.687-0.072,1.066c0,2.622,0.927,4.856,2.784,6.703
			c1.855,1.848,4.094,2.771,6.714,2.771c2.622,0,4.864-0.931,6.727-2.795c0.316-0.316,0.617-0.646,0.9-0.994l2.014,0.71
			c-0.236,0.395-0.735,0.964-1.492,1.705c-2.243,2.259-4.958,3.388-8.149,3.388c-3.158,0-5.862-1.125-8.112-3.376
			c-2.25-2.25-3.375-4.953-3.375-8.112c0-3.189,1.125-5.906,3.375-8.148c2.25-2.241,4.954-3.363,8.112-3.363
			c3.19,0,5.906,1.122,8.149,3.363c1.974,1.99,2.96,4.352,2.96,7.082H92.922z M93.278,31.649h18.049
			c-0.441-1.437-1.192-2.685-2.25-3.743c-1.863-1.863-4.105-2.795-6.727-2.795c-2.621,0-4.862,0.932-6.727,2.795
			C94.517,29.028,93.735,30.276,93.278,31.649z"/>
		<path fill="#0E89AF" d="M144.605,41.361c-3.173,3.047-6.971,4.571-11.393,4.571c-4.753,0-8.8-1.67-12.139-5.01
			c-3.34-3.34-5.009-7.387-5.009-12.14c0-4.722,1.669-8.761,5.009-12.116c3.339-3.355,7.386-5.032,12.139-5.032
			c4.422,0,8.266,1.491,11.536,4.477l-1.445,1.278c-2.875-2.543-6.238-3.812-10.091-3.812c-4.2,0-7.789,1.482-10.766,4.452
			c-2.976,2.968-4.464,6.554-4.464,10.754c0,4.216,1.488,7.809,4.464,10.777c2.977,2.969,6.565,4.453,10.766,4.453
			c3.6,0,6.774-1.104,9.522-3.316V30.489h1.87V41.361z"/>
		<path fill="#0E89AF" d="M149.794,33.567c-0.048,0.332-0.071,0.687-0.071,1.066c0,2.622,0.928,4.856,2.783,6.703
			c1.855,1.848,4.095,2.771,6.716,2.771s4.864-0.931,6.727-2.795c0.315-0.316,0.617-0.646,0.9-0.994l2.014,0.71
			c-0.236,0.395-0.734,0.964-1.492,1.705c-2.242,2.259-4.958,3.388-8.148,3.388c-3.159,0-5.862-1.125-8.112-3.376
			c-2.251-2.25-3.375-4.953-3.375-8.112c0-3.189,1.124-5.906,3.375-8.148c2.25-2.241,4.953-3.363,8.112-3.363
			c3.19,0,5.906,1.122,8.148,3.363c1.974,1.99,2.96,4.352,2.96,7.082H149.794z M150.15,31.649h18.049
			c-0.442-1.437-1.192-2.685-2.251-3.743c-1.862-1.863-4.105-2.795-6.727-2.795s-4.863,0.932-6.728,2.795
			C151.389,29.028,150.607,30.276,150.15,31.649z"/>
		<path fill="#0E89AF" d="M174.476,33.567c-0.048,0.332-0.072,0.687-0.072,1.066c0,2.622,0.928,4.856,2.785,6.703
			c1.854,1.848,4.093,2.771,6.714,2.771c2.622,0,4.864-0.931,6.728-2.795c0.315-0.316,0.616-0.646,0.9-0.994l2.014,0.71
			c-0.236,0.395-0.735,0.964-1.492,1.705c-2.243,2.259-4.959,3.388-8.149,3.388c-3.158,0-5.862-1.125-8.112-3.376
			c-2.25-2.25-3.375-4.953-3.375-8.112c0-3.189,1.125-5.906,3.375-8.148c2.25-2.241,4.954-3.363,8.112-3.363
			c3.19,0,5.906,1.122,8.149,3.363c1.974,1.99,2.96,4.352,2.96,7.082H174.476z M174.831,31.649h18.049
			c-0.441-1.437-1.192-2.685-2.25-3.743c-1.863-1.863-4.105-2.795-6.728-2.795c-2.621,0-4.862,0.932-6.727,2.795
			C176.069,29.028,175.289,30.276,174.831,31.649z"/>
		<path fill="#0E89AF" d="M208.23,24.97l-5.069,6.276l8.077,14.284h-2.321l-6.987-12.768l-1.824,2.274V45.53h-1.895V16.229h1.895
			v15.798l5.708-7.058H208.23z"/>
		<path fill="#0E89AF" d="M218.581,34.492c-1.595-0.869-2.701-1.611-3.317-2.227c-0.962-0.964-1.443-2.124-1.443-3.482
			c0-1.357,0.481-2.521,1.443-3.494c0.964-0.97,2.125-1.456,3.483-1.456c1.357,0,2.486,0.449,3.387,1.35
			c0.868,0.868,1.303,1.863,1.303,2.984v0.096l-1.634,0.663c-0.143-1.058-0.474-1.856-0.995-2.394
			c-0.521-0.536-1.208-0.804-2.061-0.804c-0.837,0-1.556,0.299-2.155,0.899c-0.601,0.6-0.9,1.318-0.9,2.155s0.3,1.556,0.9,2.155
			c0.347,0.363,1.08,0.9,2.202,1.611c1.784,0.963,3.057,1.823,3.814,2.581c1.185,1.201,1.776,2.63,1.776,4.288
			c0,1.706-0.592,3.154-1.776,4.346c-1.186,1.193-2.623,1.789-4.312,1.789s-3.125-0.596-4.31-1.789
			c-1.185-1.191-1.777-2.498-1.777-3.92l1.872-0.474c0,1.216,0.415,2.238,1.243,3.067c0.829,0.83,1.82,1.244,2.972,1.244
			c1.153,0,2.148-0.414,2.985-1.244c0.837-0.829,1.255-1.835,1.255-3.02c0-1.153-0.418-2.14-1.255-2.961
			C220.839,36.016,219.938,35.36,218.581,34.492z"/>
	</g>
	<g>
		<g>
			<circle cx="159.961" cy="17.12" r="11.188"/>
			<path fill="#FFFFFF" d="M170.404,15.286c1.111,5.438-2.397,10.747-7.833,11.861c-5.438,1.111-10.75-2.396-11.862-7.832
				c-1.111-5.441,2.396-10.75,7.833-11.863C163.979,6.341,169.292,9.845,170.404,15.286z"/>
		</g>
		<g>
			<circle cx="188.948" cy="11.191" r="11.188"/>
			<circle fill="#FFFFFF" cx="188.47" cy="11.59" r="10.05"/>
		</g>
		<g>
			<path d="M166.398,15.578c0.408,1.986-0.873,3.925-2.857,4.33c-1.987,0.406-3.925-0.874-4.331-2.858
				c-0.407-1.986,0.874-3.928,2.858-4.33C164.056,12.312,165.993,13.591,166.398,15.578z"/>
			<circle fill="#FFFFFF" cx="163.757" cy="15.194" r="1.074"/>
			<circle fill="#FFFFFF" cx="162.497" cy="14.251" r="0.325"/>
		</g>
		<g>
			<circle cx="185.923" cy="11.585" r="3.67"/>
			<circle fill="#FFFFFF" cx="186.875" cy="10.465" r="1.075"/>
			<circle fill="#FFFFFF" cx="185.614" cy="9.522" r="0.326"/>
		</g>
		<path d="M169.59,12.144c1.179-0.91,2.569-1.582,4.128-1.902c1.556-0.318,3.098-0.246,4.541,0.129
			c-0.014-0.396,0.084-0.771,0.263-1.104c-1.597-0.413-3.305-0.491-5.03-0.138c-1.727,0.352-3.269,1.096-4.576,2.105
			C169.21,11.47,169.446,11.776,169.59,12.144z"/>
	</g>
</g>
</svg>
